<svg xmlns="http://www.w3.org/2000/svg" viewBox="0 0 100 125" x="0px" y="0px"><path d="M39.87,18.45c1.36,0,2.71,.6,3.62,1.76,1.24,1.58,17.12,21.84,18.37,23.42,1.37,1.73,3.31,1.79,3.31,1.79,.06,0,.12,0,.18,0,.34,0,.68-.09,.99-.25,.2-.11,.69-.9,.73-1.24,.51-4.69,1.25-8.04,2.2-11.11,1.27-4.12,3.62-5.34,5.61-5.34,1.29,0,2.42,.52,2.99,1.09,1.46,1.46,1.69,2.77,.03,8.13-1.98,6.39-.79,22.23-.79,22.23,0,.05,0,.1,.01,.15l.2,6.2c.06,1.92-.32,3.83-1.12,5.58-.86,1.88-2.16,3.51-3.8,4.76l-7.83,5.96c-1.73,1.32-3.78,2.17-5.94,2.46h0c-.57,.08-1.14,.12-1.71,.12-1.89,0-3.77-.43-5.49-1.25l-.83-.4c-.77-.37-1.5-.82-2.18-1.34l-27.86-20.76c-2.16-1.59-2.53-4.73-.69-6.78,.88-.99,2.12-1.47,3.37-1.47,1.02,0,2.06,.32,2.93,.96l10.17,7.34s.73,.56,1.1,.56c.02,0,.04,0,.06,0,.3-.06,.48-.29,.44-.6-.05-.35-.47-.66-.75-.92-5.94-5.68-16.82-16.08-17.77-17-1.84-1.75-1.9-4.67-.15-6.5,.9-.94,2.11-1.42,3.32-1.42,1.14,0,2.29,.42,3.18,1.27,.98,.93,9.71,9.29,15.77,15.08,.18,.17,.36,.38,.6,.38,0,0,0,0,0,0,.23,0,.46-.23,.47-.46,0-.23-.2-.4-.37-.57-7-7.26-19.29-20.02-20.18-20.95-1.76-1.83-1.71-4.74,.12-6.5,.89-.86,2.04-1.29,3.19-1.29,1.21,0,2.41,.47,3.31,1.41,1.02,1.06,13.17,13.67,20.14,20.9,.24,.25,.51,.59,.84,.61,0,0,.02,0,.02,0,.27,0,.53-.25,.56-.52,.03-.3-.26-.56-.45-.81-5.21-6.64-12.81-16.33-13.54-17.27-1.57-2-1.22-4.89,.78-6.46,.84-.66,1.84-.98,2.83-.98m0-2.5s0,0,0,0c-1.58,0-3.13,.54-4.38,1.51-1.94,1.53-2.88,3.87-2.69,6.17l-2.31-2.4c-1.35-1.4-3.17-2.17-5.11-2.17-1.85,0-3.59,.71-4.92,1.99-1.37,1.32-2.14,3.08-2.17,4.98-.04,1.9,.67,3.69,1.99,5.06l1.08,1.12c-1.47,.27-2.84,.99-3.88,2.08-2.7,2.83-2.6,7.33,.22,10.03l5.6,5.36s-.04,0-.06,0c-2.02,0-3.93,.84-5.24,2.31-1.34,1.49-1.98,3.49-1.78,5.47,.21,1.99,1.25,3.8,2.85,4.98l27.84,20.75c.79,.6,1.67,1.14,2.58,1.58l.83,.4c2.04,.98,4.31,1.5,6.57,1.5,.68,0,1.38-.05,2.05-.14,2.58-.35,5.04-1.37,7.11-2.95l7.83-5.96c1.96-1.49,3.54-3.47,4.56-5.71,.95-2.09,1.42-4.4,1.35-6.7l-.2-6.2c0-.1,0-.19-.02-.29-.32-4.3-.81-16.42,.69-21.28,1.66-5.38,1.94-8.04-.65-10.64-1.12-1.13-2.95-1.83-4.76-1.83s-6.02,.69-8,7.1c-1.03,3.33-1.71,6.65-2.19,10.66-.27-.12-.59-.33-.86-.67-1-1.27-11.65-14.84-16.19-20.64l-2.17-2.77c-1.35-1.73-3.39-2.72-5.59-2.72h0Z"/></svg>