<svg fill="#fff" xmlns="http://www.w3.org/2000/svg" xmlns:xlink="http://www.w3.org/1999/xlink" version="1.1" x="0px" y="0px" viewBox="0 0 52 65" style="enable-background:new 0 0 52 52;" xml:space="preserve"><g><path d="M12.2,13.6l-3.9,3.9c-0.3,0.2-0.5,0.4-0.8,0.6l25,25c0.2-0.3,0.3-0.6,0.6-0.9l3.8-3.8L12.2,13.6z"/><path d="M38.4,37l3.9-3.9c0.2-0.2,0.5-0.4,0.8-0.6l-25-25c-0.2,0.3-0.4,0.6-0.6,0.9l-3.8,3.8L38.4,37z"/><path d="M49.9,48.7l-1.8-5.3l-4.8,4.8l5.3,1.8c0.1,0,0.2,0.1,0.3,0.1c0.3,0,0.5-0.1,0.7-0.3C50,49.4,50.1,49,49.9,48.7z"/><path d="M16.4,6.2c0-0.3-0.1-0.5-0.3-0.7l-2.3-2.3C13,2.4,11.9,2,10.8,2c-1.1,0-2.2,0.4-3,1.2L3.2,7.8c-1.7,1.6-1.7,4.3,0,6   l2.3,2.3c0.2,0.2,0.5,0.3,0.7,0.3s0.5-0.1,0.7-0.3l9.2-9.2C16.3,6.8,16.4,6.5,16.4,6.2z"/><path d="M47.3,40.7l-1.9-5.7c-0.1-0.3-0.4-0.6-0.7-0.7c-0.3-0.1-0.7,0-0.9,0.3l-9.2,9.2c-0.3,0.2-0.4,0.6-0.3,0.9   c0.1,0.3,0.3,0.6,0.7,0.7l5.7,1.9c0.1,0,0.2,0.1,0.3,0.1c0.3,0,0.5-0.1,0.7-0.3l5.3-5.3C47.3,41.4,47.4,41,47.3,40.7z"/></g></svg>