<svg id="Layer_1" data-name="Layer 1" xmlns="http://www.w3.org/2000/svg" viewBox="0 0 182.92 138.5"><defs><style>.cls-1{fill:#046;stroke-width:2.11px;}.cls-1,.cls-2,.cls-3,.cls-4{stroke:#fff;stroke-miterlimit:10;}.cls-2{fill:#333;stroke-width:1.6px;}.cls-3,.cls-4{fill:#440971;}.cls-3{stroke-width:1.64px;}.cls-4{stroke-width:1.63px;}</style></defs><path class="cls-1" d="M87.39,1.06h-.71c-47,0-85.63,30.78-85.63,68.19s38.43,68,85.27,68.2v-1.24l.35-67ZM85.56,37.4l-.34,33.68c-22.52-.15-41-15.31-41-33.68S62.86,3.71,85.56,3.71h.36Z" transform="translate(0.01 0)"/><path class="cls-2" d="M87.39,1.05h52V137.44h-52Z" transform="translate(0.01 0)"/><path class="cls-3" d="M141.37,76.36H141l.33,37.81.2,23.28h31.79a35.94,35.94,0,0,0,8.74-23.28c0-20.74-18.38-37.81-40.73-37.81Z" transform="translate(0.01 0)"/><path class="cls-4" d="M44.76,37.73c0,18.54,18.49,33.84,41.09,34l.35-34,.36-34H86.2C63.46,3.74,44.76,19.08,44.76,37.73Z" transform="translate(0.01 0)"/></svg>