<svg id="Layer_1" data-name="Layer 1" xmlns="http://www.w3.org/2000/svg" viewBox="0 0 100.38 69.8"><defs><style>.cls-1{fill:#fff;stroke:#046;}.cls-1,.cls-2,.cls-3{stroke-miterlimit:10;}.cls-2,.cls-3{fill:#440971;stroke:#fff;}.cls-2{stroke-width:1.6px;}.cls-3{stroke-width:1.64px;}</style></defs><path class="cls-1" d="M275.79,446.89h-.37c-24.4,0-44.48,14.79-44.48,32.76s20,32.69,44.29,32.77v-.6h0l.19-32.17Zm-.19,18.2-.17,15.85c-11.39-.07-20.7-7.2-20.7-15.85s9.42-15.84,20.87-15.84h.19Z" transform="translate(-230.44 -445.07)"/><rect class="cls-2" x="47.25" y="0.8" width="28.74" height="68.18"/><path class="cls-3" d="M307.5,483.52h-.18l.18,18.9.11,11.63h17.56A17,17,0,0,0,330,502.42C330,492.05,319.85,483.52,307.5,483.52Z" transform="translate(-230.44 -445.07)"/></svg>