<svg fill="#fff" xmlns="http://www.w3.org/2000/svg" data-name="Layer 1" viewBox="0 0 100 125" x="0px" y="0px"><title>collection 1</title><path d="M8.30581,91.7886H91.69419A3.30482,3.30482,0,0,0,94.94283,87.877l-.20338-1.08893a19.56724,19.56724,0,0,0-11.53951-14.398L66.72479,65.34316A12.15733,12.15733,0,0,1,59.3676,54.84753l-.00638-.39926c3.50226-2.44009,6.48149-6.78069,8.1038-14.08851.61719-2.78774,4.23312-5.151,5.01783-9.47131,1.04073-5.7202-1.60212-7.83215-3.74777-7.949-1.699-8.91284-9.43884-14.728-18.735-14.728s-17.036,5.81517-18.735,14.728c-2.14565.11689-4.7885,2.22884-3.75,7.949.787,4.32035,4.40292,6.68357,5.02012,9.47131,1.62224,7.30763,4.60135,11.64818,8.10354,14.08833l-.00638.39944a12.15735,12.15735,0,0,1-7.35713,10.49563L16.79975,72.39005A19.56666,19.56666,0,0,0,5.26054,86.788l-.20337,1.08906A3.30486,3.30486,0,0,0,8.30581,91.7886Z"/></svg>