<svg xmlns="http://www.w3.org/2000/svg" data-name="Layer 1" viewBox="0 0 100 125" x="0px" y="0px" fill="#fff"><title>129all</title><path d="M91.31,18.37a.5.5,0,0,0-.49.13l-9,8.83-9.26-9.26,9-9a.5.5,0,0,0-.23-.84,20.9,20.9,0,0,0-18.87,5.24c-4.76,4.76-3.57,10.38-2.78,14.09.12.55.23,1.07.31,1.53-3.18,3.4-27.43,27.72-31,31.08-.4-.08-.84-.19-1.31-.31C24,59,18.54,57.65,13.57,62.53A20.79,20.79,0,0,0,8.34,81.26a.5.5,0,0,0,.84.24l9-8.83,9.26,9.26-9,9a.5.5,0,0,0,.23.84,18.41,18.41,0,0,0,4.38.51,21,21,0,0,0,14.48-5.75c4.76-4.76,3.57-10.38,2.78-14.09-.12-.55-.23-1.07-.31-1.53,3.19-3.41,27.44-27.72,31-31.08l1.31.31c3.64.9,9.15,2.26,14.11-2.61a20.79,20.79,0,0,0,5.24-18.73A.5.5,0,0,0,91.31,18.37Z"/></svg>